<svg width="30" height="30" viewBox="0 0 30 30" fill="none" xmlns="http://www.w3.org/2000/svg">
<path fill-rule="evenodd" clip-rule="evenodd" d="M6.25 5C5.55964 5 5 5.55964 5 6.25V23.75C5 24.4404 5.55964 25 6.25 25H23.75C24.4404 25 25 24.4404 25 23.75V6.25C25 5.55964 24.4404 5 23.75 5H6.25ZM2.5 6.25C2.5 4.17893 4.17893 2.5 6.25 2.5H23.75C25.8211 2.5 27.5 4.17893 27.5 6.25V23.75C27.5 25.8211 25.8211 27.5 23.75 27.5H6.25C4.17893 27.5 2.5 25.8211 2.5 23.75V6.25Z" fill="#418647"/>
<path fill-rule="evenodd" clip-rule="evenodd" d="M15 8.75C15.6904 8.75 16.25 9.30964 16.25 10V20C16.25 20.6904 15.6904 21.25 15 21.25C14.3096 21.25 13.75 20.6904 13.75 20V10C13.75 9.30964 14.3096 8.75 15 8.75Z" fill="#418647"/>
<path fill-rule="evenodd" clip-rule="evenodd" d="M8.75 15C8.75 14.3096 9.30964 13.75 10 13.75H20C20.6904 13.75 21.25 14.3096 21.25 15C21.25 15.6904 20.6904 16.25 20 16.25H10C9.30964 16.25 8.75 15.6904 8.75 15Z" fill="#418647"/>
</svg>
