<svg width="30" height="30" viewBox="0 0 30 30" fill="none" xmlns="http://www.w3.org/2000/svg">
<path fill-rule="evenodd" clip-rule="evenodd" d="M6.5 1.74998C6.73607 1.43523 7.10655 1.24998 7.5 1.24998H22.5C22.8935 1.24998 23.2639 1.43523 23.5 1.74998L27.25 6.74998C27.4123 6.96635 27.5 7.22952 27.5 7.49998V25C27.5 25.9945 27.1049 26.9484 26.4017 27.6516C25.6984 28.3549 24.7446 28.75 23.75 28.75H6.25C5.25544 28.75 4.30161 28.3549 3.59835 27.6516C2.89509 26.9484 2.5 25.9945 2.5 25V7.49998C2.5 7.22952 2.58772 6.96635 2.75 6.74998L6.5 1.74998ZM8.125 3.74998L5 7.91665V25C5 25.3315 5.1317 25.6494 5.36612 25.8839C5.60054 26.1183 5.91848 26.25 6.25 26.25H23.75C24.0815 26.25 24.3995 26.1183 24.6339 25.8839C24.8683 25.6494 25 25.3315 25 25V7.91665L21.875 3.74998H8.125Z" fill="#418647"/>
<path fill-rule="evenodd" clip-rule="evenodd" d="M2.5 7.50002C2.5 6.80966 3.05964 6.25002 3.75 6.25002H26.25C26.9404 6.25002 27.5 6.80966 27.5 7.50002C27.5 8.19037 26.9404 8.75002 26.25 8.75002H3.75C3.05964 8.75002 2.5 8.19037 2.5 7.50002Z" fill="#418647"/>
<path fill-rule="evenodd" clip-rule="evenodd" d="M10 11.25C10.6904 11.25 11.25 11.8096 11.25 12.5C11.25 13.4946 11.6451 14.4484 12.3483 15.1517C13.0516 15.8549 14.0054 16.25 15 16.25C15.9946 16.25 16.9484 15.8549 17.6517 15.1517C18.3549 14.4484 18.75 13.4946 18.75 12.5C18.75 11.8096 19.3096 11.25 20 11.25C20.6904 11.25 21.25 11.8096 21.25 12.5C21.25 14.1576 20.5915 15.7473 19.4194 16.9194C18.2473 18.0915 16.6576 18.75 15 18.75C13.3424 18.75 11.7527 18.0915 10.5806 16.9194C9.40848 15.7473 8.75 14.1576 8.75 12.5C8.75 11.8096 9.30964 11.25 10 11.25Z" fill="#418647"/>
</svg>
