<svg width="504" height="686" viewBox="0 0 504 686" fill="none" xmlns="http://www.w3.org/2000/svg">
<path fill-rule="evenodd" clip-rule="evenodd" d="M245.5 40V0H260.5V40H245.5ZM381.36 37.975L361.36 69.975L348.64 62.025L368.64 30.025L381.36 37.975ZM137.36 30.025L157.36 62.025L144.64 69.975L124.64 37.975L137.36 30.025ZM79.9412 135.619L45.9412 114.619L38.0588 127.381L72.0588 148.381L79.9412 135.619ZM458.059 114.619L424.059 135.619L431.941 148.381L465.941 127.381L458.059 114.619ZM431.941 338.619L465.941 359.619L458.059 372.381L424.059 351.381L431.941 338.619ZM260.5 484.5V581H245.5V484.5H146.598H144.371H140.524H139.342H131L134.203 473.271L135.278 469.5L136.46 465.357L142.787 443.173L245.674 82.4398L246 81.2959L253.5 55L261 81.5123L261.267 82.4566L363.231 442.898L369.557 465.259L370.757 469.5L371.815 473.241L375 484.5H366.671H365.505H361.704H359.411H261H260.5ZM38.0588 360.619L72.0588 339.619L79.9412 352.381L45.9412 373.381L38.0588 360.619ZM457 237.5H493V252.5H457V237.5ZM51 237.5H15V252.5H51V237.5ZM180.424 365.902L246 135.985V231.271L180.424 365.902ZM168.775 424.072L246 265.525V325.414L168.775 424.072ZM166.379 451.47L246 349.75V397.522L166.379 451.47ZM166.509 469.5L246 415.641V466V469.5H166.509ZM339.746 469.5H261V466V415.706L339.746 469.5ZM339.768 451.349L261 397.541V349.891L339.768 451.349ZM337.308 423.72L261 325.43V265.766L337.308 423.72ZM325.617 365.038L261 231.283V136.618L325.617 365.038Z" fill="white"/>
<path d="M18.648 685.48C15.144 685.48 11.976 684.88 9.144 683.68C6.36 682.48 4.152 680.752 2.52 678.496C0.888 676.24 0.0479999 673.576 0 670.504H10.8C10.944 672.568 11.664 674.2 12.96 675.4C14.304 676.6 16.128 677.2 18.432 677.2C20.784 677.2 22.632 676.648 23.976 675.544C25.32 674.392 25.992 672.904 25.992 671.08C25.992 669.592 25.536 668.368 24.624 667.408C23.712 666.448 22.56 665.704 21.168 665.176C19.824 664.6 17.952 663.976 15.552 663.304C12.288 662.344 9.624 661.408 7.56 660.496C5.544 659.536 3.792 658.12 2.304 656.248C0.864 654.328 0.144 651.784 0.144 648.616C0.144 645.64 0.888 643.048 2.376 640.84C3.864 638.632 5.952 636.952 8.64 635.8C11.328 634.6 14.4 634 17.856 634C23.04 634 27.24 635.272 30.456 637.816C33.72 640.312 35.52 643.816 35.856 648.328H24.768C24.672 646.6 23.928 645.184 22.536 644.08C21.192 642.928 19.392 642.352 17.136 642.352C15.168 642.352 13.584 642.856 12.384 643.864C11.232 644.872 10.656 646.336 10.656 648.256C10.656 649.6 11.088 650.728 11.952 651.64C12.864 652.504 13.968 653.224 15.264 653.8C16.608 654.328 18.48 654.952 20.88 655.672C24.144 656.632 26.808 657.592 28.872 658.552C30.936 659.512 32.712 660.952 34.2 662.872C35.688 664.792 36.432 667.312 36.432 670.432C36.432 673.12 35.736 675.616 34.344 677.92C32.952 680.224 30.912 682.072 28.224 683.464C25.536 684.808 22.344 685.48 18.648 685.48Z" fill="white"/>
<path d="M108.459 634.72V684.976H98.379V663.592H76.851V684.976H66.771V634.72H76.851V655.384H98.379V634.72H108.459Z" fill="white"/>
<path d="M163.308 685.48C158.604 685.48 154.284 684.376 150.348 682.168C146.412 679.96 143.292 676.912 140.988 673.024C138.684 669.088 137.532 664.648 137.532 659.704C137.532 654.808 138.684 650.416 140.988 646.528C143.292 642.592 146.412 639.52 150.348 637.312C154.284 635.104 158.604 634 163.308 634C168.06 634 172.38 635.104 176.268 637.312C180.204 639.52 183.3 642.592 185.556 646.528C187.86 650.416 189.012 654.808 189.012 659.704C189.012 664.648 187.86 669.088 185.556 673.024C183.3 676.912 180.204 679.96 176.268 682.168C172.332 684.376 168.012 685.48 163.308 685.48ZM163.308 676.48C166.332 676.48 168.996 675.808 171.3 674.464C173.604 673.072 175.404 671.104 176.7 668.56C177.996 666.016 178.644 663.064 178.644 659.704C178.644 656.344 177.996 653.416 176.7 650.92C175.404 648.376 173.604 646.432 171.3 645.088C168.996 643.744 166.332 643.072 163.308 643.072C160.284 643.072 157.596 643.744 155.244 645.088C152.94 646.432 151.14 648.376 149.844 650.92C148.548 653.416 147.9 656.344 147.9 659.704C147.9 663.064 148.548 666.016 149.844 668.56C151.14 671.104 152.94 673.072 155.244 674.464C157.596 675.808 160.284 676.48 163.308 676.48Z" fill="white"/>
<path d="M254.76 650.272C254.76 652.96 254.112 655.48 252.816 657.832C251.568 660.184 249.576 662.08 246.84 663.52C244.152 664.96 240.744 665.68 236.616 665.68H228.192V684.976H218.112V634.72H236.616C240.504 634.72 243.816 635.392 246.552 636.736C249.288 638.08 251.328 639.928 252.672 642.28C254.064 644.632 254.76 647.296 254.76 650.272ZM236.184 657.544C238.968 657.544 241.032 656.92 242.376 655.672C243.72 654.376 244.392 652.576 244.392 650.272C244.392 645.376 241.656 642.928 236.184 642.928H228.192V657.544H236.184Z" fill="white"/>
<path d="M317.716 634.72V642.856H304.324V684.976H294.244V642.856H280.852V634.72H317.716Z" fill="white"/>
<path d="M372.591 684.976L361.503 665.392H356.751V684.976H346.671V634.72H365.535C369.423 634.72 372.735 635.416 375.471 636.808C378.207 638.152 380.247 640 381.591 642.352C382.983 644.656 383.679 647.248 383.679 650.128C383.679 653.44 382.719 656.44 380.799 659.128C378.879 661.768 376.023 663.592 372.231 664.6L384.255 684.976H372.591ZM356.751 657.832H365.175C367.911 657.832 369.951 657.184 371.295 655.888C372.639 654.544 373.311 652.696 373.311 650.344C373.311 648.04 372.639 646.264 371.295 645.016C369.951 643.72 367.911 643.072 365.175 643.072H356.751V657.832Z" fill="white"/>
<path d="M424.476 642.856V655.456H441.396V663.448H424.476V676.768H443.556V684.976H414.396V634.648H443.556V642.856H424.476Z" fill="white"/>
<path d="M484.396 642.856V655.456H501.316V663.448H484.396V676.768H503.476V684.976H474.316V634.648H503.476V642.856H484.396Z" fill="white"/>
</svg>

