<svg width="512" height="639" viewBox="0 0 512 639" fill="none" xmlns="http://www.w3.org/2000/svg">
<g filter="url(#filter0_d_573_2038)">
<path fill-rule="evenodd" clip-rule="evenodd" d="M140.46 410.357L146.787 388.173L249.674 27.4398L250 26.2959L257.5 0L265 26.5123L265.267 27.4566L367.231 387.898L373.557 410.259L374.757 414.5L375.815 418.241L379 429.5H370.671H369.505H365.704H363.411H265H264.5V526H249.5V429.5H150.598H148.371H144.524H143.342H135L138.203 418.271L139.278 414.5L140.46 410.357ZM184.424 310.902L250 80.9851V176.271L184.424 310.902ZM172.775 369.072L250 210.525V270.414L172.775 369.072ZM170.379 396.47L250 294.75V342.522L170.379 396.47ZM170.509 414.5L250 360.641V411V414.5H170.509ZM343.746 414.5H265V411V360.706L343.746 414.5ZM343.768 396.349L265 342.541V294.891L343.768 396.349ZM341.308 368.72L265 270.43V210.766L341.308 368.72ZM329.617 310.038L265 176.283V81.6179L329.617 310.038Z" fill="#9D5B53"/>
<path d="M22.648 630.48C19.144 630.48 15.976 629.88 13.144 628.68C10.36 627.48 8.152 625.752 6.52 623.496C4.888 621.24 4.048 618.576 4 615.504H14.8C14.944 617.568 15.664 619.2 16.96 620.4C18.304 621.6 20.128 622.2 22.432 622.2C24.784 622.2 26.632 621.648 27.976 620.544C29.32 619.392 29.992 617.904 29.992 616.08C29.992 614.592 29.536 613.368 28.624 612.408C27.712 611.448 26.56 610.704 25.168 610.176C23.824 609.6 21.952 608.976 19.552 608.304C16.288 607.344 13.624 606.408 11.56 605.496C9.544 604.536 7.792 603.12 6.304 601.248C4.864 599.328 4.144 596.784 4.144 593.616C4.144 590.64 4.888 588.048 6.376 585.84C7.864 583.632 9.952 581.952 12.64 580.8C15.328 579.6 18.4 579 21.856 579C27.04 579 31.24 580.272 34.456 582.816C37.72 585.312 39.52 588.816 39.856 593.328H28.768C28.672 591.6 27.928 590.184 26.536 589.08C25.192 587.928 23.392 587.352 21.136 587.352C19.168 587.352 17.584 587.856 16.384 588.864C15.232 589.872 14.656 591.336 14.656 593.256C14.656 594.6 15.088 595.728 15.952 596.64C16.864 597.504 17.968 598.224 19.264 598.8C20.608 599.328 22.48 599.952 24.88 600.672C28.144 601.632 30.808 602.592 32.872 603.552C34.936 604.512 36.712 605.952 38.2 607.872C39.688 609.792 40.432 612.312 40.432 615.432C40.432 618.12 39.736 620.616 38.344 622.92C36.952 625.224 34.912 627.072 32.224 628.464C29.536 629.808 26.344 630.48 22.648 630.48Z" fill="#9D5B53"/>
<path d="M112.459 579.72V629.976H102.379V608.592H80.851V629.976H70.771V579.72H80.851V600.384H102.379V579.72H112.459Z" fill="#9D5B53"/>
<path d="M167.308 630.48C162.604 630.48 158.284 629.376 154.348 627.168C150.412 624.96 147.292 621.912 144.988 618.024C142.684 614.088 141.532 609.648 141.532 604.704C141.532 599.808 142.684 595.416 144.988 591.528C147.292 587.592 150.412 584.52 154.348 582.312C158.284 580.104 162.604 579 167.308 579C172.06 579 176.38 580.104 180.268 582.312C184.204 584.52 187.3 587.592 189.556 591.528C191.86 595.416 193.012 599.808 193.012 604.704C193.012 609.648 191.86 614.088 189.556 618.024C187.3 621.912 184.204 624.96 180.268 627.168C176.332 629.376 172.012 630.48 167.308 630.48ZM167.308 621.48C170.332 621.48 172.996 620.808 175.3 619.464C177.604 618.072 179.404 616.104 180.7 613.56C181.996 611.016 182.644 608.064 182.644 604.704C182.644 601.344 181.996 598.416 180.7 595.92C179.404 593.376 177.604 591.432 175.3 590.088C172.996 588.744 170.332 588.072 167.308 588.072C164.284 588.072 161.596 588.744 159.244 590.088C156.94 591.432 155.14 593.376 153.844 595.92C152.548 598.416 151.9 601.344 151.9 604.704C151.9 608.064 152.548 611.016 153.844 613.56C155.14 616.104 156.94 618.072 159.244 619.464C161.596 620.808 164.284 621.48 167.308 621.48Z" fill="#9D5B53"/>
<path d="M258.76 595.272C258.76 597.96 258.112 600.48 256.816 602.832C255.568 605.184 253.576 607.08 250.84 608.52C248.152 609.96 244.744 610.68 240.616 610.68H232.192V629.976H222.112V579.72H240.616C244.504 579.72 247.816 580.392 250.552 581.736C253.288 583.08 255.328 584.928 256.672 587.28C258.064 589.632 258.76 592.296 258.76 595.272ZM240.184 602.544C242.968 602.544 245.032 601.92 246.376 600.672C247.72 599.376 248.392 597.576 248.392 595.272C248.392 590.376 245.656 587.928 240.184 587.928H232.192V602.544H240.184Z" fill="#9D5B53"/>
<path d="M321.716 579.72V587.856H308.324V629.976H298.244V587.856H284.852V579.72H321.716Z" fill="#9D5B53"/>
<path d="M376.591 629.976L365.503 610.392H360.751V629.976H350.671V579.72H369.535C373.423 579.72 376.735 580.416 379.471 581.808C382.207 583.152 384.247 585 385.591 587.352C386.983 589.656 387.679 592.248 387.679 595.128C387.679 598.44 386.719 601.44 384.799 604.128C382.879 606.768 380.023 608.592 376.231 609.6L388.255 629.976H376.591ZM360.751 602.832H369.175C371.911 602.832 373.951 602.184 375.295 600.888C376.639 599.544 377.311 597.696 377.311 595.344C377.311 593.04 376.639 591.264 375.295 590.016C373.951 588.72 371.911 588.072 369.175 588.072H360.751V602.832Z" fill="#9D5B53"/>
<path d="M428.476 587.856V600.456H445.396V608.448H428.476V621.768H447.556V629.976H418.396V579.648H447.556V587.856H428.476Z" fill="#9D5B53"/>
<path d="M488.396 587.856V600.456H505.316V608.448H488.396V621.768H507.476V629.976H478.316V579.648H507.476V587.856H488.396Z" fill="#9D5B53"/>
</g>
<defs>
<filter id="filter0_d_573_2038" x="0" y="0" width="511.476" height="638.48" filterUnits="userSpaceOnUse" color-interpolation-filters="sRGB">
<feFlood flood-opacity="0" result="BackgroundImageFix"/>
<feColorMatrix in="SourceAlpha" type="matrix" values="0 0 0 0 0 0 0 0 0 0 0 0 0 0 0 0 0 0 127 0" result="hardAlpha"/>
<feOffset dy="4"/>
<feGaussianBlur stdDeviation="2"/>
<feComposite in2="hardAlpha" operator="out"/>
<feColorMatrix type="matrix" values="0 0 0 0 0 0 0 0 0 0 0 0 0 0 0 0 0 0 0.25 0"/>
<feBlend mode="normal" in2="BackgroundImageFix" result="effect1_dropShadow_573_2038"/>
<feBlend mode="normal" in="SourceGraphic" in2="effect1_dropShadow_573_2038" result="shape"/>
</filter>
</defs>
</svg>
