<svg width="50" height="50" viewBox="0 0 50 50" fill="none" xmlns="http://www.w3.org/2000/svg">
<path fill-rule="evenodd" clip-rule="evenodd" d="M25 4.54545C13.7033 4.54545 4.54545 13.7033 4.54545 25C4.54545 36.2967 13.7033 45.4545 25 45.4545C36.2967 45.4545 45.4545 36.2967 45.4545 25C45.4545 13.7033 36.2967 4.54545 25 4.54545ZM0 25C0 11.1929 11.1929 0 25 0C38.8071 0 50 11.1929 50 25C50 38.8071 38.8071 50 25 50C11.1929 50 0 38.8071 0 25Z" fill="#A78A86"/>
<path fill-rule="evenodd" clip-rule="evenodd" d="M25 13.6364C26.2552 13.6364 27.2727 14.6539 27.2727 15.9091V34.0909C27.2727 35.3461 26.2552 36.3636 25 36.3636C23.7448 36.3636 22.7273 35.3461 22.7273 34.0909V15.9091C22.7273 14.6539 23.7448 13.6364 25 13.6364Z" fill="#A78A86"/>
<path fill-rule="evenodd" clip-rule="evenodd" d="M13.6364 25C13.6364 23.7448 14.6539 22.7273 15.9091 22.7273H34.0909C35.3461 22.7273 36.3636 23.7448 36.3636 25C36.3636 26.2552 35.3461 27.2727 34.0909 27.2727H15.9091C14.6539 27.2727 13.6364 26.2552 13.6364 25Z" fill="#A78A86"/>
</svg>
